<?xml version="1.0" encoding="UTF-8" standalone="no"?>
<svg width="100" height="200" viewBox="0 0 100 200" xmlns="http://www.w3.org/2000/svg">
  <!-- DNA Helix SVG -->
  <defs>
    <linearGradient id="blueGradient" x1="0%" y1="0%" x2="100%" y2="0%">
      <stop offset="0%" style="stop-color:#1e3a8a;stop-opacity:1" />
      <stop offset="100%" style="stop-color:#4f6bff;stop-opacity:1" />
    </linearGradient>
    <linearGradient id="cyanGradient" x1="0%" y1="0%" x2="100%" y2="0%">
      <stop offset="0%" style="stop-color:#00ccff;stop-opacity:1" />
      <stop offset="100%" style="stop-color:#4f6bff;stop-opacity:1" />
    </linearGradient>
  </defs>
  
  <!-- Backbone 1 -->
  <path d="M 20,0 Q 20,25 50,25 T 80,50 T 50,75 T 80,100 T 50,125 T 80,150 T 50,175 T 80,200" 
        fill="none" stroke="url(#blueGradient)" stroke-width="3" />
  
  <!-- Backbone 2 -->
  <path d="M 80,0 Q 80,25 50,25 T 20,50 T 50,75 T 20,100 T 50,125 T 20,150 T 50,175 T 20,200" 
        fill="none" stroke="url(#blueGradient)" stroke-width="3" />
  
  <!-- Base pairs -->
  <line x1="20" y1="25" x2="80" y2="25" stroke="url(#cyanGradient)" stroke-width="2" />
  <line x1="20" y1="50" x2="80" y2="50" stroke="url(#cyanGradient)" stroke-width="2" />
  <line x1="20" y1="75" x2="80" y2="75" stroke="url(#cyanGradient)" stroke-width="2" />
  <line x1="20" y1="100" x2="80" y2="100" stroke="url(#cyanGradient)" stroke-width="2" />
  <line x1="20" y1="125" x2="80" y2="125" stroke="url(#cyanGradient)" stroke-width="2" />
  <line x1="20" y1="150" x2="80" y2="150" stroke="url(#cyanGradient)" stroke-width="2" />
  <line x1="20" y1="175" x2="80" y2="175" stroke="url(#cyanGradient)" stroke-width="2" />
  
  <!-- Base pair nucleotides -->
  <circle cx="20" cy="25" r="4" fill="#00ccff" />
  <circle cx="80" cy="25" r="4" fill="#4f6bff" />
  
  <circle cx="20" cy="50" r="4" fill="#4f6bff" />
  <circle cx="80" cy="50" r="4" fill="#00ccff" />
  
  <circle cx="20" cy="75" r="4" fill="#00ccff" />
  <circle cx="80" cy="75" r="4" fill="#4f6bff" />
  
  <circle cx="20" cy="100" r="4" fill="#4f6bff" />
  <circle cx="80" cy="100" r="4" fill="#00ccff" />
  
  <circle cx="20" cy="125" r="4" fill="#00ccff" />
  <circle cx="80" cy="125" r="4" fill="#4f6bff" />
  
  <circle cx="20" cy="150" r="4" fill="#4f6bff" />
  <circle cx="80" cy="150" r="4" fill="#00ccff" />
  
  <circle cx="20" cy="175" r="4" fill="#00ccff" />
  <circle cx="80" cy="175" r="4" fill="#4f6bff" />
</svg>
