<?xml version="1.0" encoding="UTF-8" standalone="no"?>
<svg width="120" height="120" viewBox="0 0 120 120" xmlns="http://www.w3.org/2000/svg">
  <!-- Molecule 3: DNA Segment -->
  <defs>
    <linearGradient id="blueGradient" x1="0%" y1="0%" x2="100%" y2="0%">
      <stop offset="0%" style="stop-color:#1e3a8a;stop-opacity:1" />
      <stop offset="100%" style="stop-color:#4f6bff;stop-opacity:1" />
    </linearGradient>
    <linearGradient id="cyanGradient" x1="0%" y1="0%" x2="100%" y2="0%">
      <stop offset="0%" style="stop-color:#00ccff;stop-opacity:1" />
      <stop offset="100%" style="stop-color:#4f6bff;stop-opacity:1" />
    </linearGradient>
    <filter id="glow">
      <feGaussianBlur stdDeviation="2.5" result="coloredBlur"/>
      <feMerge>
        <feMergeNode in="coloredBlur"/>
        <feMergeNode in="SourceGraphic"/>
      </feMerge>
    </filter>
  </defs>
  
  <!-- Phosphate groups -->
  <circle cx="20" cy="20" r="8" fill="#ff9933" filter="url(#glow)" />
  <circle cx="20" cy="100" r="8" fill="#ff9933" filter="url(#glow)" />
  <circle cx="100" cy="20" r="8" fill="#ff9933" filter="url(#glow)" />
  <circle cx="100" cy="100" r="8" fill="#ff9933" filter="url(#glow)" />
  
  <!-- Sugar groups -->
  <circle cx="40" cy="40" r="7" fill="url(#blueGradient)" filter="url(#glow)" />
  <circle cx="40" cy="80" r="7" fill="url(#blueGradient)" filter="url(#glow)" />
  <circle cx="80" cy="40" r="7" fill="url(#blueGradient)" filter="url(#glow)" />
  <circle cx="80" cy="80" r="7" fill="url(#blueGradient)" filter="url(#glow)" />
  
  <!-- Nucleobases -->
  <circle cx="50" cy="60" r="9" fill="#9966ff" filter="url(#glow)" />
  <circle cx="70" cy="60" r="9" fill="url(#cyanGradient)" filter="url(#glow)" />
  
  <!-- Backbone bonds -->
  <line x1="20" y1="20" x2="40" y2="40" stroke="#ff9933" stroke-width="3" />
  <line x1="40" y1="40" x2="40" y2="80" stroke="url(#blueGradient)" stroke-width="3" />
  <line x1="40" y1="80" x2="20" y2="100" stroke="#ff9933" stroke-width="3" />
  
  <line x1="100" y1="20" x2="80" y2="40" stroke="#ff9933" stroke-width="3" />
  <line x1="80" y1="40" x2="80" y2="80" stroke="url(#blueGradient)" stroke-width="3" />
  <line x1="80" y1="80" x2="100" y2="100" stroke="#ff9933" stroke-width="3" />
  
  <!-- Base pair bonds -->
  <line x1="40" y1="40" x2="50" y2="60" stroke="#9966ff" stroke-width="3" />
  <line x1="80" y1="40" x2="70" y2="60" stroke="#00ccff" stroke-width="3" />
  <line x1="50" y1="60" x2="70" y2="60" stroke="#ffffff" stroke-width="2" stroke-dasharray="3,3" />
  <line x1="40" y1="80" x2="50" y2="60" stroke="#9966ff" stroke-width="3" />
  <line x1="80" y1="80" x2="70" y2="60" stroke="#00ccff" stroke-width="3" />
</svg>
