<?xml version="1.0" encoding="UTF-8" standalone="no"?>
<svg width="120" height="120" viewBox="0 0 120 120" xmlns="http://www.w3.org/2000/svg">
  <!-- Molecule 3: Complex Organic Compound -->
  <defs>
    <linearGradient id="blueGradient" x1="0%" y1="0%" x2="100%" y2="0%">
      <stop offset="0%" style="stop-color:#1e3a8a;stop-opacity:1" />
      <stop offset="100%" style="stop-color:#4f6bff;stop-opacity:1" />
    </linearGradient>
    <linearGradient id="cyanGradient" x1="0%" y1="0%" x2="100%" y2="0%">
      <stop offset="0%" style="stop-color:#00ccff;stop-opacity:1" />
      <stop offset="100%" style="stop-color:#4f6bff;stop-opacity:1" />
    </linearGradient>
    <filter id="glow">
      <feGaussianBlur stdDeviation="2.5" result="coloredBlur"/>
      <feMerge>
        <feMergeNode in="coloredBlur"/>
        <feMergeNode in="SourceGraphic"/>
      </feMerge>
    </filter>
  </defs>
  
  <!-- Benzene ring -->
  <polygon points="60,30 75,38 75,53 60,60 45,53 45,38" 
           fill="none" stroke="url(#blueGradient)" stroke-width="3" filter="url(#glow)" />
  
  <!-- Carbon atoms in benzene -->
  <circle cx="60" cy="30" r="5" fill="url(#blueGradient)" filter="url(#glow)" />
  <circle cx="75" cy="38" r="5" fill="url(#blueGradient)" filter="url(#glow)" />
  <circle cx="75" cy="53" r="5" fill="url(#blueGradient)" filter="url(#glow)" />
  <circle cx="60" cy="60" r="5" fill="url(#blueGradient)" filter="url(#glow)" />
  <circle cx="45" cy="53" r="5" fill="url(#blueGradient)" filter="url(#glow)" />
  <circle cx="45" cy="38" r="5" fill="url(#blueGradient)" filter="url(#glow)" />
  
  <!-- Inner benzene circle (representing delocalized electrons) -->
  <circle cx="60" cy="45" r="10" fill="none" stroke="url(#cyanGradient)" stroke-width="1" stroke-dasharray="2,2" filter="url(#glow)" />
  
  <!-- Side chains -->
  <line x1="60" y1="30" x2="60" y2="15" stroke="#4f6bff" stroke-width="3" />
  <circle cx="60" cy="15" r="5" fill="#9966ff" filter="url(#glow)" />
  
  <line x1="75" y1="53" x2="90" y2="60" stroke="#4f6bff" stroke-width="3" />
  <circle cx="90" cy="60" r="5" fill="url(#cyanGradient)" filter="url(#glow)" />
  
  <line x1="60" y1="60" x2="60" y2="75" stroke="#4f6bff" stroke-width="3" />
  <line x1="60" y1="75" x2="60" y2="90" stroke="#4f6bff" stroke-width="3" />
  <circle cx="60" cy="75" r="5" fill="url(#blueGradient)" filter="url(#glow)" />
  <circle cx="60" cy="90" r="5" fill="#ff6699" filter="url(#glow)" />
  
  <line x1="45" y1="53" x2="30" y2="60" stroke="#4f6bff" stroke-width="3" />
  <circle cx="30" cy="60" r="5" fill="url(#cyanGradient)" filter="url(#glow)" />
</svg>
