<?xml version="1.0" encoding="UTF-8" standalone="no"?>
<svg width="120" height="120" viewBox="0 0 120 120" xmlns="http://www.w3.org/2000/svg">
  <!-- Protein Structure -->
  <defs>
    <linearGradient id="blueGradient" x1="0%" y1="0%" x2="100%" y2="0%">
      <stop offset="0%" style="stop-color:#1e3a8a;stop-opacity:1" />
      <stop offset="100%" style="stop-color:#4f6bff;stop-opacity:1" />
    </linearGradient>
    <linearGradient id="cyanGradient" x1="0%" y1="0%" x2="100%" y2="0%">
      <stop offset="0%" style="stop-color:#00ccff;stop-opacity:1" />
      <stop offset="100%" style="stop-color:#4f6bff;stop-opacity:1" />
    </linearGradient>
    <filter id="glow">
      <feGaussianBlur stdDeviation="2.5" result="coloredBlur"/>
      <feMerge>
        <feMergeNode in="coloredBlur"/>
        <feMergeNode in="SourceGraphic"/>
      </feMerge>
    </filter>
  </defs>
  
  <!-- Alpha helix structure -->
  <path d="M 60,10 
           C 80,20 40,30 60,40 
           C 80,50 40,60 60,70 
           C 80,80 40,90 60,100 
           C 80,110 40,120 60,130" 
        fill="none" stroke="url(#blueGradient)" stroke-width="4" filter="url(#glow)" />
  
  <!-- Amino acid residues -->
  <circle cx="60" cy="10" r="5" fill="#9966ff" filter="url(#glow)" />
  <circle cx="60" cy="40" r="5" fill="url(#cyanGradient)" filter="url(#glow)" />
  <circle cx="60" cy="70" r="5" fill="#ff6699" filter="url(#glow)" />
  <circle cx="60" cy="100" r="5" fill="#9966ff" filter="url(#glow)" />
  
  <!-- Side chains -->
  <line x1="60" y1="10" x2="75" y2="15" stroke="#9966ff" stroke-width="2" />
  <circle cx="75" cy="15" r="3" fill="#9966ff" filter="url(#glow)" />
  
  <line x1="60" y1="40" x2="45" y2="45" stroke="#00ccff" stroke-width="2" />
  <circle cx="45" cy="45" r="3" fill="url(#cyanGradient)" filter="url(#glow)" />
  
  <line x1="60" y1="70" x2="75" y2="75" stroke="#ff6699" stroke-width="2" />
  <circle cx="75" cy="75" r="3" fill="#ff6699" filter="url(#glow)" />
  
  <line x1="60" y1="100" x2="45" y2="105" stroke="#9966ff" stroke-width="2" />
  <circle cx="45" cy="105" r="3" fill="#9966ff" filter="url(#glow)" />
  
  <!-- Hydrogen bonds -->
  <line x1="65" y1="15" x2="65" y2="35" stroke="#ffffff" stroke-width="1" stroke-dasharray="2,2" />
  <line x1="65" y1="45" x2="65" y2="65" stroke="#ffffff" stroke-width="1" stroke-dasharray="2,2" />
  <line x1="65" y1="75" x2="65" y2="95" stroke="#ffffff" stroke-width="1" stroke-dasharray="2,2" />
</svg>
